<svg width="19" height="22" viewBox="0 0 19 22" fill="none" xmlns="http://www.w3.org/2000/svg">
<path d="M9.90726 4.48251C12.2938 4.48251 14.5668 5.34249 16.2715 6.95496C19.7945 10.2874 19.7945 15.7698 16.2715 19.1022C14.2258 21.1447 11.3847 21.8972 8.65714 21.5747L9.22538 19.4247C11.1574 19.6397 13.203 18.9947 14.6804 17.5973C17.2943 15.1248 17.2943 11.0399 14.6804 8.45993C13.4303 7.27746 11.612 6.63247 9.90726 6.63247V11.5774L4.22491 6.20248L9.90726 0.827576V4.48251ZM3.42938 19.1022C0.474558 16.3073 0.0199701 12.0074 2.06562 8.67493L3.77032 10.2874C2.5202 12.6524 2.97479 15.6623 5.13408 17.5973C5.70232 18.1348 6.3842 18.5647 7.17973 18.8872L6.49785 21.0372C5.36138 20.6072 4.33856 19.9622 3.42938 19.1022Z" fill="white"/>
</svg>
